<svg width="112" height="16" viewBox="0 0 112 16" fill="none" xmlns="http://www.w3.org/2000/svg">
<g clip-path="url(#clip0_206_1862)">
<path d="M6.10203 3.60556C6.94646 2.09073 7.36868 1.33331 7.99992 1.33331C8.63116 1.33331 9.05338 2.09073 9.89781 3.60556L10.1163 3.99747C10.3562 4.42794 10.4762 4.64317 10.6633 4.78518C10.8504 4.9272 11.0834 4.97991 11.5493 5.08535L11.9736 5.18133C13.6133 5.55235 14.4332 5.73786 14.6283 6.36513C14.8234 6.99241 14.2644 7.64603 13.1465 8.95326L12.8573 9.29146C12.5396 9.66294 12.3808 9.84867 12.3093 10.0785C12.2379 10.3082 12.2619 10.5561 12.3099 11.0517L12.3537 11.5029C12.5227 13.247 12.6072 14.1191 12.0965 14.5068C11.5858 14.8945 10.8181 14.541 9.2828 13.8341L8.8856 13.6512C8.4493 13.4503 8.23115 13.3499 7.99992 13.3499C7.76868 13.3499 7.55054 13.4503 7.11424 13.6512L6.71703 13.8341C5.1817 14.541 4.41404 14.8945 3.90335 14.5068C3.39267 14.1191 3.47717 13.247 3.64618 11.5029L3.68991 11.0517C3.73794 10.5561 3.76195 10.3082 3.69049 10.0785C3.61904 9.84867 3.4602 9.66294 3.14253 9.29146L2.85332 8.95326C1.73542 7.64603 1.17647 6.99241 1.37153 6.36513C1.5666 5.73786 2.38649 5.55235 4.02628 5.18133L4.45051 5.08535C4.91649 4.97991 5.14947 4.9272 5.33655 4.78518C5.52362 4.64317 5.6436 4.42794 5.88356 3.99747L6.10203 3.60556Z" fill="#FDF41A" stroke="#FDF41A" stroke-width="1.5"/>
</g>
<g clip-path="url(#clip1_206_1862)">
<path d="M30.102 3.60556C30.9465 2.09073 31.3687 1.33331 31.9999 1.33331C32.6312 1.33331 33.0534 2.09073 33.8978 3.60556L34.1163 3.99747C34.3562 4.42794 34.4762 4.64317 34.6633 4.78518C34.8504 4.9272 35.0834 4.97991 35.5493 5.08535L35.9736 5.18133C37.6133 5.55235 38.4332 5.73786 38.6283 6.36513C38.8234 6.99241 38.2644 7.64603 37.1465 8.95326L36.8573 9.29146C36.5396 9.66294 36.3808 9.84867 36.3093 10.0785C36.2379 10.3082 36.2619 10.5561 36.3099 11.0517L36.3537 11.5029C36.5227 13.247 36.6072 14.1191 36.0965 14.5068C35.5858 14.8945 34.8181 14.541 33.2828 13.8341L32.8856 13.6512C32.4493 13.4503 32.2312 13.3499 31.9999 13.3499C31.7687 13.3499 31.5505 13.4503 31.1142 13.6512L30.717 13.8341C29.1817 14.541 28.414 14.8945 27.9034 14.5068C27.3927 14.1191 27.4772 13.247 27.6462 11.5029L27.6899 11.0517C27.7379 10.5561 27.7619 10.3082 27.6905 10.0785C27.619 9.84867 27.4602 9.66294 27.1425 9.29146L26.8533 8.95326C25.7354 7.64603 25.1765 6.99241 25.3715 6.36513C25.5666 5.73786 26.3865 5.55235 28.0263 5.18133L28.4505 5.08535C28.9165 4.97991 29.1495 4.9272 29.3365 4.78518C29.5236 4.64317 29.6436 4.42794 29.8836 3.99747L30.102 3.60556Z" fill="#FDF41A" stroke="#FDF41A" stroke-width="1.5"/>
</g>
<g clip-path="url(#clip2_206_1862)">
<path d="M54.102 3.60556C54.9465 2.09073 55.3687 1.33331 55.9999 1.33331C56.6312 1.33331 57.0534 2.09073 57.8978 3.60556L58.1163 3.99747C58.3562 4.42794 58.4762 4.64317 58.6633 4.78518C58.8504 4.9272 59.0834 4.97991 59.5493 5.08535L59.9736 5.18133C61.6133 5.55235 62.4332 5.73786 62.6283 6.36513C62.8234 6.99241 62.2644 7.64603 61.1465 8.95326L60.8573 9.29146C60.5396 9.66294 60.3808 9.84867 60.3093 10.0785C60.2379 10.3082 60.2619 10.5561 60.3099 11.0517L60.3537 11.5029C60.5227 13.247 60.6072 14.1191 60.0965 14.5068C59.5858 14.8945 58.8181 14.541 57.2828 13.8341L56.8856 13.6512C56.4493 13.4503 56.2312 13.3499 55.9999 13.3499C55.7687 13.3499 55.5505 13.4503 55.1142 13.6512L54.717 13.8341C53.1817 14.541 52.414 14.8945 51.9034 14.5068C51.3927 14.1191 51.4772 13.247 51.6462 11.5029L51.6899 11.0517C51.7379 10.5561 51.7619 10.3082 51.6905 10.0785C51.619 9.84867 51.4602 9.66294 51.1425 9.29146L50.8533 8.95326C49.7354 7.64603 49.1765 6.99241 49.3715 6.36513C49.5666 5.73786 50.3865 5.55235 52.0263 5.18133L52.4505 5.08535C52.9165 4.97991 53.1495 4.9272 53.3365 4.78518C53.5236 4.64317 53.6436 4.42794 53.8836 3.99747L54.102 3.60556Z" fill="#FDF41A" stroke="#FDF41A" stroke-width="1.5"/>
</g>
<g clip-path="url(#clip3_206_1862)">
<path d="M78.102 3.60556C78.9465 2.09073 79.3687 1.33331 79.9999 1.33331C80.6312 1.33331 81.0534 2.09073 81.8978 3.60556L82.1163 3.99747C82.3562 4.42794 82.4762 4.64317 82.6633 4.78518C82.8504 4.9272 83.0834 4.97991 83.5493 5.08535L83.9736 5.18133C85.6133 5.55235 86.4332 5.73786 86.6283 6.36513C86.8234 6.99241 86.2644 7.64603 85.1465 8.95326L84.8573 9.29146C84.5396 9.66294 84.3808 9.84867 84.3093 10.0785C84.2379 10.3082 84.2619 10.5561 84.3099 11.0517L84.3537 11.5029C84.5227 13.247 84.6072 14.1191 84.0965 14.5068C83.5858 14.8945 82.8181 14.541 81.2828 13.8341L80.8856 13.6512C80.4493 13.4503 80.2312 13.3499 79.9999 13.3499C79.7687 13.3499 79.5505 13.4503 79.1142 13.6512L78.717 13.8341C77.1817 14.541 76.414 14.8945 75.9034 14.5068C75.3927 14.1191 75.4772 13.247 75.6462 11.5029L75.6899 11.0517C75.7379 10.5561 75.7619 10.3082 75.6905 10.0785C75.619 9.84867 75.4602 9.66294 75.1425 9.29146L74.8533 8.95326C73.7354 7.64603 73.1765 6.99241 73.3715 6.36513C73.5666 5.73786 74.3865 5.55235 76.0263 5.18133L76.4505 5.08535C76.9165 4.97991 77.1495 4.9272 77.3365 4.78518C77.5236 4.64317 77.6436 4.42794 77.8836 3.99747L78.102 3.60556Z" fill="#FDF41A" stroke="#FDF41A" stroke-width="1.5"/>
</g>
<g clip-path="url(#clip4_206_1862)">
<path d="M102.102 3.60556C102.946 2.09073 103.369 1.33331 104 1.33331C104.631 1.33331 105.053 2.09073 105.898 3.60556L106.116 3.99747C106.356 4.42794 106.476 4.64317 106.663 4.78518C106.85 4.9272 107.083 4.97991 107.549 5.08535L107.974 5.18133C109.613 5.55235 110.433 5.73786 110.628 6.36513C110.823 6.99241 110.264 7.64603 109.147 8.95326L108.857 9.29146C108.54 9.66294 108.381 9.84867 108.309 10.0785C108.238 10.3082 108.262 10.5561 108.31 11.0517L108.354 11.5029C108.523 13.247 108.607 14.1191 108.096 14.5068C107.586 14.8945 106.818 14.541 105.283 13.8341L104.886 13.6512C104.449 13.4503 104.231 13.3499 104 13.3499C103.769 13.3499 103.551 13.4503 103.114 13.6512L102.717 13.8341C101.182 14.541 100.414 14.8945 99.9034 14.5068C99.3927 14.1191 99.4772 13.247 99.6462 11.5029L99.6899 11.0517C99.7379 10.5561 99.7619 10.3082 99.6905 10.0785C99.619 9.84867 99.4602 9.66294 99.1425 9.29146L98.8533 8.95326C97.7354 7.64603 97.1765 6.99241 97.3715 6.36513C97.5666 5.73786 98.3865 5.55235 100.026 5.18133L100.451 5.08535C100.916 4.97991 101.149 4.9272 101.337 4.78518C101.524 4.64317 101.644 4.42794 101.884 3.99747L102.102 3.60556Z" fill="#FDF41A" stroke="#FDF41A" stroke-width="1.5"/>
</g>
<defs>
<clipPath id="clip0_206_1862">
<rect width="16" height="16" rx="5" fill="white"/>
</clipPath>
<clipPath id="clip1_206_1862">
<rect x="24" width="16" height="16" rx="5" fill="white"/>
</clipPath>
<clipPath id="clip2_206_1862">
<rect x="48" width="16" height="16" rx="5" fill="white"/>
</clipPath>
<clipPath id="clip3_206_1862">
<rect x="72" width="16" height="16" rx="5" fill="white"/>
</clipPath>
<clipPath id="clip4_206_1862">
<rect x="96" width="16" height="16" rx="5" fill="white"/>
</clipPath>
</defs>
</svg>
